<mxfile host="app.diagrams.net" agent="Mozilla/5.0 (Windows NT 10.0; Win64; x64) AppleWebKit/537.36 (KHTML, like Gecko) Chrome/136.0.0.0 Safari/537.36" version="27.0.6" pages="6">
  <diagram name="Page-1" id="Ii2rgeH5YloTvp8NZu42">
    <mxGraphModel dx="1426" dy="897" grid="1" gridSize="10" guides="1" tooltips="1" connect="1" arrows="1" fold="1" page="1" pageScale="1" pageWidth="827" pageHeight="1169" math="0" shadow="0">
      <root>
        <mxCell id="0" />
        <mxCell id="1" parent="0" />
        <mxCell id="m8_tIYctS1H6TQWtqx1L-6" style="edgeStyle=orthogonalEdgeStyle;rounded=0;orthogonalLoop=1;jettySize=auto;html=1;" edge="1" parent="1" source="m8_tIYctS1H6TQWtqx1L-1" target="m8_tIYctS1H6TQWtqx1L-4">
          <mxGeometry relative="1" as="geometry" />
        </mxCell>
        <mxCell id="m8_tIYctS1H6TQWtqx1L-1" value="&lt;span style=&quot;font-size: 18pt; font-family: Calibri;&quot;&gt;&lt;font style=&quot;color: rgb(0, 0, 0);&quot;&gt;ServerConnection&lt;/font&gt;&lt;/span&gt;" style="rounded=1;whiteSpace=wrap;html=1;" vertex="1" parent="1">
          <mxGeometry x="180" y="70" width="210" height="120" as="geometry" />
        </mxCell>
        <mxCell id="m8_tIYctS1H6TQWtqx1L-4" value="&lt;span style=&quot;font-size:12.0pt;line-height:115%;&lt;br/&gt;font-family:&amp;quot;Calibri&amp;quot;,sans-serif;mso-ascii-theme-font:minor-latin;mso-fareast-font-family:&lt;br/&gt;Calibri;mso-fareast-theme-font:minor-latin;mso-hansi-theme-font:minor-latin;&lt;br/&gt;mso-bidi-font-family:Arial;mso-bidi-theme-font:minor-bidi;mso-ansi-language:&lt;br/&gt;EN-US;mso-fareast-language:EN-US;mso-bidi-language:HE&quot;&gt;connectToServer&lt;/span&gt;" style="rounded=1;whiteSpace=wrap;html=1;" vertex="1" parent="1">
          <mxGeometry x="210" y="210" width="150" height="60" as="geometry" />
        </mxCell>
        <mxCell id="m8_tIYctS1H6TQWtqx1L-12" value="" style="edgeStyle=orthogonalEdgeStyle;rounded=0;orthogonalLoop=1;jettySize=auto;html=1;" edge="1" parent="1" source="m8_tIYctS1H6TQWtqx1L-8" target="m8_tIYctS1H6TQWtqx1L-11">
          <mxGeometry relative="1" as="geometry" />
        </mxCell>
        <mxCell id="m8_tIYctS1H6TQWtqx1L-15" value="" style="edgeStyle=orthogonalEdgeStyle;rounded=0;orthogonalLoop=1;jettySize=auto;html=1;" edge="1" parent="1" source="m8_tIYctS1H6TQWtqx1L-8" target="m8_tIYctS1H6TQWtqx1L-11">
          <mxGeometry relative="1" as="geometry" />
        </mxCell>
        <mxCell id="m8_tIYctS1H6TQWtqx1L-27" style="edgeStyle=orthogonalEdgeStyle;rounded=0;orthogonalLoop=1;jettySize=auto;html=1;exitX=0.75;exitY=1;exitDx=0;exitDy=0;" edge="1" parent="1" source="m8_tIYctS1H6TQWtqx1L-8" target="m8_tIYctS1H6TQWtqx1L-18">
          <mxGeometry relative="1" as="geometry">
            <Array as="points">
              <mxPoint x="320" y="410" />
              <mxPoint x="362" y="410" />
            </Array>
          </mxGeometry>
        </mxCell>
        <mxCell id="m8_tIYctS1H6TQWtqx1L-8" value="&lt;span style=&quot;font-size:11.0pt;line-height:115%;&lt;br/&gt;font-family:&amp;quot;Calibri&amp;quot;,sans-serif;mso-ascii-theme-font:minor-latin;mso-fareast-font-family:&lt;br/&gt;Calibri;mso-fareast-theme-font:minor-latin;mso-hansi-theme-font:minor-latin;&lt;br/&gt;mso-bidi-font-family:Arial;mso-bidi-theme-font:minor-bidi;mso-ansi-language:&lt;br/&gt;EN-US;mso-fareast-language:EN-US;mso-bidi-language:HE&quot;&gt;listenForMessages&lt;/span&gt;" style="whiteSpace=wrap;html=1;rounded=1;" vertex="1" parent="1">
          <mxGeometry x="215" y="330" width="140" height="40" as="geometry" />
        </mxCell>
        <mxCell id="m8_tIYctS1H6TQWtqx1L-10" value="מאתחל את ה&lt;div&gt;Thread&lt;/div&gt;" style="text;html=1;align=center;verticalAlign=middle;resizable=0;points=[];autosize=1;strokeColor=none;fillColor=none;" vertex="1" parent="1">
          <mxGeometry x="290" y="280" width="90" height="40" as="geometry" />
        </mxCell>
        <mxCell id="m8_tIYctS1H6TQWtqx1L-11" value="&lt;span style=&quot;font-size:11.0pt;line-height:115%;&lt;br/&gt;font-family:&amp;quot;Calibri&amp;quot;,sans-serif;mso-ascii-theme-font:minor-latin;mso-fareast-font-family:&lt;br/&gt;Calibri;mso-fareast-theme-font:minor-latin;mso-hansi-theme-font:minor-latin;&lt;br/&gt;mso-bidi-font-family:Arial;mso-bidi-theme-font:minor-bidi;mso-ansi-language:&lt;br/&gt;EN-US;mso-fareast-language:EN-US;mso-bidi-language:HE&quot;&gt;decrypt&lt;/span&gt;" style="whiteSpace=wrap;html=1;rounded=1;" vertex="1" parent="1">
          <mxGeometry x="170" y="440" width="120" height="60" as="geometry" />
        </mxCell>
        <mxCell id="m8_tIYctS1H6TQWtqx1L-28" style="edgeStyle=orthogonalEdgeStyle;rounded=0;orthogonalLoop=1;jettySize=auto;html=1;exitX=0.5;exitY=1;exitDx=0;exitDy=0;" edge="1" parent="1" source="m8_tIYctS1H6TQWtqx1L-18" target="m8_tIYctS1H6TQWtqx1L-25">
          <mxGeometry relative="1" as="geometry" />
        </mxCell>
        <mxCell id="m8_tIYctS1H6TQWtqx1L-18" value="&lt;span style=&quot;font-size:11.0pt;line-height:115%;&lt;br/&gt;font-family:&amp;quot;Calibri&amp;quot;,sans-serif;mso-ascii-theme-font:minor-latin;mso-fareast-font-family:&lt;br/&gt;Calibri;mso-fareast-theme-font:minor-latin;mso-hansi-theme-font:minor-latin;&lt;br/&gt;mso-bidi-font-family:Arial;mso-bidi-theme-font:minor-bidi;mso-ansi-language:&lt;br/&gt;EN-US;mso-fareast-language:EN-US;mso-bidi-language:HE&quot;&gt;parseServerResponse&lt;/span&gt;" style="whiteSpace=wrap;html=1;rounded=1;" vertex="1" parent="1">
          <mxGeometry x="309" y="450" width="161" height="50" as="geometry" />
        </mxCell>
        <mxCell id="m8_tIYctS1H6TQWtqx1L-22" style="edgeStyle=orthogonalEdgeStyle;rounded=0;orthogonalLoop=1;jettySize=auto;html=1;entryX=0.571;entryY=1;entryDx=0;entryDy=0;entryPerimeter=0;" edge="1" parent="1" source="m8_tIYctS1H6TQWtqx1L-11" target="m8_tIYctS1H6TQWtqx1L-8">
          <mxGeometry relative="1" as="geometry">
            <Array as="points">
              <mxPoint x="240" y="410" />
              <mxPoint x="295" y="410" />
            </Array>
          </mxGeometry>
        </mxCell>
        <mxCell id="m8_tIYctS1H6TQWtqx1L-25" value="&lt;span style=&quot;font-size: 14.6667px;&quot;&gt;פונקציה שקשורה ל&lt;br&gt;Header&lt;br&gt;&lt;/span&gt;&lt;span style=&quot;font-size:11.0pt;line-height:115%;&lt;br/&gt;font-family:&amp;quot;Calibri&amp;quot;,sans-serif;mso-ascii-theme-font:minor-latin;mso-fareast-font-family:&lt;br/&gt;Calibri;mso-fareast-theme-font:minor-latin;mso-hansi-theme-font:minor-latin;&lt;br/&gt;mso-bidi-font-family:Arial;mso-bidi-theme-font:minor-bidi;mso-ansi-language:&lt;br/&gt;EN-US;mso-fareast-language:EN-US;mso-bidi-language:HE&quot;&gt;functionsMap&lt;/span&gt;&lt;span dir=&quot;RTL&quot;&gt;&lt;/span&gt;&lt;span dir=&quot;RTL&quot;&gt;&lt;/span&gt;&lt;span style=&quot;font-size:11.0pt;&lt;br/&gt;line-height:115%;font-family:&amp;quot;Arial&amp;quot;,sans-serif;mso-ascii-font-family:Calibri;&lt;br/&gt;mso-ascii-theme-font:minor-latin;mso-fareast-font-family:Calibri;mso-fareast-theme-font:&lt;br/&gt;minor-latin;mso-hansi-font-family:Calibri;mso-hansi-theme-font:minor-latin;&lt;br/&gt;mso-bidi-theme-font:minor-bidi;mso-ansi-language:EN-US;mso-fareast-language:&lt;br/&gt;EN-US;mso-bidi-language:HE&quot; dir=&quot;RTL&quot;&gt;&lt;span dir=&quot;RTL&quot;&gt;&lt;/span&gt;&lt;span dir=&quot;RTL&quot;&gt;&lt;/span&gt;&amp;nbsp;&lt;/span&gt;&lt;span style=&quot;font-size: 14.6667px;&quot;&gt;&amp;nbsp;לפי&lt;/span&gt;" style="whiteSpace=wrap;html=1;rounded=1;" vertex="1" parent="1">
          <mxGeometry x="310" y="520" width="160" height="100" as="geometry" />
        </mxCell>
        <mxCell id="m8_tIYctS1H6TQWtqx1L-31" value="" style="endArrow=none;dashed=1;html=1;rounded=0;entryX=0.5;entryY=1;entryDx=0;entryDy=0;exitX=0.5;exitY=0;exitDx=0;exitDy=0;" edge="1" parent="1" source="m8_tIYctS1H6TQWtqx1L-8" target="m8_tIYctS1H6TQWtqx1L-4">
          <mxGeometry width="50" height="50" relative="1" as="geometry">
            <mxPoint x="180" y="350" as="sourcePoint" />
            <mxPoint x="230" y="300" as="targetPoint" />
          </mxGeometry>
        </mxCell>
      </root>
    </mxGraphModel>
  </diagram>
  <diagram id="HDVcv1fCIppxwtou8SF0" name="Page-2">
    <mxGraphModel dx="679" dy="427" grid="1" gridSize="10" guides="1" tooltips="1" connect="1" arrows="1" fold="1" page="1" pageScale="1" pageWidth="827" pageHeight="1169" math="0" shadow="0">
      <root>
        <mxCell id="0" />
        <mxCell id="1" parent="0" />
        <mxCell id="5k1cnQ_hiNnrWjuRezKW-1" value="&lt;span style=&quot;font-size:11.0pt;line-height:115%;&lt;br/&gt;font-family:&amp;quot;Calibri&amp;quot;,sans-serif;mso-ascii-theme-font:minor-latin;mso-fareast-font-family:&lt;br/&gt;Calibri;mso-fareast-theme-font:minor-latin;mso-hansi-theme-font:minor-latin;&lt;br/&gt;mso-bidi-font-family:Arial;mso-bidi-theme-font:minor-bidi;mso-ansi-language:&lt;br/&gt;EN-US;mso-fareast-language:EN-US;mso-bidi-language:HE&quot;&gt;sendMessageToServer&lt;/span&gt;" style="rounded=1;whiteSpace=wrap;html=1;" vertex="1" parent="1">
          <mxGeometry x="370" y="170" width="170" height="50" as="geometry" />
        </mxCell>
        <mxCell id="5k1cnQ_hiNnrWjuRezKW-6" style="edgeStyle=orthogonalEdgeStyle;rounded=0;orthogonalLoop=1;jettySize=auto;html=1;exitX=0.75;exitY=0;exitDx=0;exitDy=0;entryX=0.75;entryY=1;entryDx=0;entryDy=0;" edge="1" parent="1" source="5k1cnQ_hiNnrWjuRezKW-3" target="5k1cnQ_hiNnrWjuRezKW-1">
          <mxGeometry relative="1" as="geometry" />
        </mxCell>
        <mxCell id="5k1cnQ_hiNnrWjuRezKW-3" value="&lt;span style=&quot;font-size:11.0pt;line-height:115%;&lt;br/&gt;font-family:&amp;quot;Calibri&amp;quot;,sans-serif;mso-ascii-theme-font:minor-latin;mso-fareast-font-family:&lt;br/&gt;Calibri;mso-fareast-theme-font:minor-latin;mso-hansi-theme-font:minor-latin;&lt;br/&gt;mso-bidi-font-family:Arial;mso-bidi-theme-font:minor-bidi;mso-ansi-language:&lt;br/&gt;EN-US;mso-fareast-language:EN-US;mso-bidi-language:HE&quot;&gt;encrypt&lt;/span&gt;" style="rounded=1;whiteSpace=wrap;html=1;" vertex="1" parent="1">
          <mxGeometry x="370" y="270" width="170" height="40" as="geometry" />
        </mxCell>
        <mxCell id="5k1cnQ_hiNnrWjuRezKW-7" style="edgeStyle=orthogonalEdgeStyle;rounded=0;orthogonalLoop=1;jettySize=auto;html=1;exitX=0.25;exitY=1;exitDx=0;exitDy=0;entryX=0.244;entryY=0.087;entryDx=0;entryDy=0;entryPerimeter=0;" edge="1" parent="1" source="5k1cnQ_hiNnrWjuRezKW-1" target="5k1cnQ_hiNnrWjuRezKW-3">
          <mxGeometry relative="1" as="geometry" />
        </mxCell>
      </root>
    </mxGraphModel>
  </diagram>
  <diagram id="mYuxd1YBsu0opmxV1QKQ" name="Page-3">
    <mxGraphModel dx="815" dy="513" grid="1" gridSize="10" guides="1" tooltips="1" connect="1" arrows="1" fold="1" page="1" pageScale="1" pageWidth="827" pageHeight="1169" math="0" shadow="0">
      <root>
        <mxCell id="0" />
        <mxCell id="1" parent="0" />
        <mxCell id="-Leu3pSwO-j7le32Gq32-4" value="" style="edgeStyle=orthogonalEdgeStyle;rounded=0;orthogonalLoop=1;jettySize=auto;html=1;" edge="1" parent="1" source="-Leu3pSwO-j7le32Gq32-1">
          <mxGeometry relative="1" as="geometry">
            <mxPoint x="420" y="300" as="targetPoint" />
          </mxGeometry>
        </mxCell>
        <mxCell id="-Leu3pSwO-j7le32Gq32-1" value="כל פונקציה כאשר יש שגיעה" style="rounded=1;whiteSpace=wrap;html=1;" vertex="1" parent="1">
          <mxGeometry x="360" y="160" width="120" height="60" as="geometry" />
        </mxCell>
        <mxCell id="-Leu3pSwO-j7le32Gq32-5" value="onError" style="rounded=1;whiteSpace=wrap;html=1;" vertex="1" parent="1">
          <mxGeometry x="360" y="300" width="120" height="60" as="geometry" />
        </mxCell>
      </root>
    </mxGraphModel>
  </diagram>
  <diagram id="0fsd9UY1mxTJq-QIUUEu" name="Page-4">
    <mxGraphModel dx="1426" dy="897" grid="1" gridSize="10" guides="1" tooltips="1" connect="1" arrows="1" fold="1" page="1" pageScale="1" pageWidth="827" pageHeight="1169" math="0" shadow="0">
      <root>
        <mxCell id="0" />
        <mxCell id="1" parent="0" />
        <mxCell id="aoR4IBHbcE6GA_HiZl9--1" value="ChessBoard" style="rounded=1;whiteSpace=wrap;html=1;" vertex="1" parent="1">
          <mxGeometry x="370" y="140" width="120" height="60" as="geometry" />
        </mxCell>
        <mxCell id="aoR4IBHbcE6GA_HiZl9--7" style="edgeStyle=orthogonalEdgeStyle;rounded=0;orthogonalLoop=1;jettySize=auto;html=1;exitX=0.5;exitY=0;exitDx=0;exitDy=0;entryX=0.5;entryY=1;entryDx=0;entryDy=0;" edge="1" parent="1" source="aoR4IBHbcE6GA_HiZl9--2" target="aoR4IBHbcE6GA_HiZl9--1">
          <mxGeometry relative="1" as="geometry" />
        </mxCell>
        <mxCell id="aoR4IBHbcE6GA_HiZl9--2" value="ChessPiece" style="whiteSpace=wrap;html=1;rounded=1;" vertex="1" parent="1">
          <mxGeometry x="300" y="260" width="120" height="60" as="geometry" />
        </mxCell>
        <mxCell id="aoR4IBHbcE6GA_HiZl9--8" style="edgeStyle=orthogonalEdgeStyle;rounded=0;orthogonalLoop=1;jettySize=auto;html=1;exitX=0.5;exitY=0;exitDx=0;exitDy=0;entryX=0.5;entryY=1;entryDx=0;entryDy=0;" edge="1" parent="1" source="aoR4IBHbcE6GA_HiZl9--5" target="aoR4IBHbcE6GA_HiZl9--1">
          <mxGeometry relative="1" as="geometry" />
        </mxCell>
        <mxCell id="aoR4IBHbcE6GA_HiZl9--5" value="Cord" style="whiteSpace=wrap;html=1;rounded=1;" vertex="1" parent="1">
          <mxGeometry x="440" y="260" width="120" height="60" as="geometry" />
        </mxCell>
      </root>
    </mxGraphModel>
  </diagram>
  <diagram id="pu-xMaS92F7-vXE0KCKl" name="Page-5">
    <mxGraphModel dx="1426" dy="897" grid="1" gridSize="10" guides="1" tooltips="1" connect="1" arrows="1" fold="1" page="1" pageScale="1" pageWidth="827" pageHeight="1169" math="0" shadow="0">
      <root>
        <mxCell id="0" />
        <mxCell id="1" parent="0" />
        <mxCell id="-3h9dn7a6-xc81u9MtfG-6" value="" style="edgeStyle=orthogonalEdgeStyle;rounded=0;orthogonalLoop=1;jettySize=auto;html=1;" edge="1" parent="1" source="-3h9dn7a6-xc81u9MtfG-4" target="-3h9dn7a6-xc81u9MtfG-5">
          <mxGeometry relative="1" as="geometry" />
        </mxCell>
        <mxCell id="-3h9dn7a6-xc81u9MtfG-8" style="edgeStyle=orthogonalEdgeStyle;rounded=0;orthogonalLoop=1;jettySize=auto;html=1;entryX=0.5;entryY=0;entryDx=0;entryDy=0;" edge="1" parent="1" source="-3h9dn7a6-xc81u9MtfG-4" target="-3h9dn7a6-xc81u9MtfG-7">
          <mxGeometry relative="1" as="geometry" />
        </mxCell>
        <mxCell id="-3h9dn7a6-xc81u9MtfG-4" value="מתקבל לוח חדש מהשרת&amp;nbsp;" style="rounded=1;whiteSpace=wrap;html=1;" vertex="1" parent="1">
          <mxGeometry x="354" y="110" width="120" height="60" as="geometry" />
        </mxCell>
        <mxCell id="-3h9dn7a6-xc81u9MtfG-5" value="uploadFromString" style="whiteSpace=wrap;html=1;rounded=1;" vertex="1" parent="1">
          <mxGeometry x="280" y="270" width="120" height="60" as="geometry" />
        </mxCell>
        <mxCell id="-3h9dn7a6-xc81u9MtfG-7" value="uploadMoveHistory" style="whiteSpace=wrap;html=1;rounded=1;" vertex="1" parent="1">
          <mxGeometry x="430" y="270" width="120" height="60" as="geometry" />
        </mxCell>
      </root>
    </mxGraphModel>
  </diagram>
  <diagram id="WvxNp_YirIiwoEufjsIg" name="Page-6">
    <mxGraphModel dx="1678" dy="1055" grid="1" gridSize="10" guides="1" tooltips="1" connect="1" arrows="1" fold="1" page="1" pageScale="1" pageWidth="827" pageHeight="1169" math="0" shadow="0">
      <root>
        <mxCell id="0" />
        <mxCell id="1" parent="0" />
        <mxCell id="_3owXhIFQMovRmH-AZ9w-3" value="" style="edgeStyle=orthogonalEdgeStyle;rounded=0;orthogonalLoop=1;jettySize=auto;html=1;" edge="1" parent="1" source="_3owXhIFQMovRmH-AZ9w-1" target="_3owXhIFQMovRmH-AZ9w-2">
          <mxGeometry relative="1" as="geometry" />
        </mxCell>
        <mxCell id="_3owXhIFQMovRmH-AZ9w-1" value="משתמש לחץ אל חייל בלוח" style="rounded=1;whiteSpace=wrap;html=1;" vertex="1" parent="1">
          <mxGeometry x="380" y="180" width="120" height="60" as="geometry" />
        </mxCell>
        <mxCell id="_3owXhIFQMovRmH-AZ9w-37" style="edgeStyle=orthogonalEdgeStyle;rounded=0;orthogonalLoop=1;jettySize=auto;html=1;exitX=0.5;exitY=1;exitDx=0;exitDy=0;entryX=0.5;entryY=0;entryDx=0;entryDy=0;" edge="1" parent="1" source="_3owXhIFQMovRmH-AZ9w-2" target="_3owXhIFQMovRmH-AZ9w-7">
          <mxGeometry relative="1" as="geometry">
            <Array as="points">
              <mxPoint x="440" y="510" />
              <mxPoint x="150" y="510" />
            </Array>
          </mxGeometry>
        </mxCell>
        <mxCell id="_3owXhIFQMovRmH-AZ9w-38" style="edgeStyle=orthogonalEdgeStyle;rounded=0;orthogonalLoop=1;jettySize=auto;html=1;exitX=0.5;exitY=1;exitDx=0;exitDy=0;" edge="1" parent="1" source="_3owXhIFQMovRmH-AZ9w-2" target="_3owXhIFQMovRmH-AZ9w-8">
          <mxGeometry relative="1" as="geometry">
            <Array as="points">
              <mxPoint x="450" y="380" />
              <mxPoint x="450" y="520" />
              <mxPoint x="290" y="520" />
            </Array>
          </mxGeometry>
        </mxCell>
        <mxCell id="_3owXhIFQMovRmH-AZ9w-39" style="edgeStyle=orthogonalEdgeStyle;rounded=0;orthogonalLoop=1;jettySize=auto;html=1;exitX=0.25;exitY=1;exitDx=0;exitDy=0;entryX=0.5;entryY=0;entryDx=0;entryDy=0;" edge="1" parent="1" source="_3owXhIFQMovRmH-AZ9w-2" target="_3owXhIFQMovRmH-AZ9w-4">
          <mxGeometry relative="1" as="geometry" />
        </mxCell>
        <mxCell id="_3owXhIFQMovRmH-AZ9w-40" style="edgeStyle=orthogonalEdgeStyle;rounded=0;orthogonalLoop=1;jettySize=auto;html=1;exitX=0.683;exitY=0.983;exitDx=0;exitDy=0;entryX=0.5;entryY=0;entryDx=0;entryDy=0;exitPerimeter=0;" edge="1" parent="1" source="_3owXhIFQMovRmH-AZ9w-2" target="_3owXhIFQMovRmH-AZ9w-11">
          <mxGeometry relative="1" as="geometry">
            <Array as="points">
              <mxPoint x="462" y="381" />
              <mxPoint x="461" y="381" />
              <mxPoint x="461" y="530" />
              <mxPoint x="430" y="530" />
            </Array>
          </mxGeometry>
        </mxCell>
        <mxCell id="_3owXhIFQMovRmH-AZ9w-41" style="edgeStyle=orthogonalEdgeStyle;rounded=0;orthogonalLoop=1;jettySize=auto;html=1;exitX=0.75;exitY=1;exitDx=0;exitDy=0;" edge="1" parent="1" source="_3owXhIFQMovRmH-AZ9w-2" target="_3owXhIFQMovRmH-AZ9w-10">
          <mxGeometry relative="1" as="geometry">
            <Array as="points">
              <mxPoint x="470" y="530" />
              <mxPoint x="560" y="530" />
            </Array>
          </mxGeometry>
        </mxCell>
        <mxCell id="_3owXhIFQMovRmH-AZ9w-42" style="edgeStyle=orthogonalEdgeStyle;rounded=0;orthogonalLoop=1;jettySize=auto;html=1;exitX=0.85;exitY=1.017;exitDx=0;exitDy=0;entryX=0.5;entryY=0;entryDx=0;entryDy=0;exitPerimeter=0;" edge="1" parent="1" source="_3owXhIFQMovRmH-AZ9w-2" target="_3owXhIFQMovRmH-AZ9w-9">
          <mxGeometry relative="1" as="geometry">
            <Array as="points">
              <mxPoint x="482" y="380" />
              <mxPoint x="480" y="380" />
              <mxPoint x="480" y="520" />
              <mxPoint x="690" y="520" />
            </Array>
          </mxGeometry>
        </mxCell>
        <mxCell id="_3owXhIFQMovRmH-AZ9w-43" style="edgeStyle=orthogonalEdgeStyle;rounded=0;orthogonalLoop=1;jettySize=auto;html=1;exitX=0.908;exitY=1.017;exitDx=0;exitDy=0;exitPerimeter=0;" edge="1" parent="1" source="_3owXhIFQMovRmH-AZ9w-2" target="_3owXhIFQMovRmH-AZ9w-12">
          <mxGeometry relative="1" as="geometry">
            <Array as="points">
              <mxPoint x="489" y="380" />
              <mxPoint x="490" y="380" />
              <mxPoint x="490" y="510" />
              <mxPoint x="820" y="510" />
            </Array>
          </mxGeometry>
        </mxCell>
        <mxCell id="_3owXhIFQMovRmH-AZ9w-2" value="updateValidMoves" style="whiteSpace=wrap;html=1;rounded=1;" vertex="1" parent="1">
          <mxGeometry x="380" y="320" width="120" height="60" as="geometry" />
        </mxCell>
        <mxCell id="_3owXhIFQMovRmH-AZ9w-4" value="clearValidMoves" style="whiteSpace=wrap;html=1;rounded=1;" vertex="1" parent="1">
          <mxGeometry x="294" y="430" width="120" height="60" as="geometry" />
        </mxCell>
        <mxCell id="_3owXhIFQMovRmH-AZ9w-25" style="edgeStyle=orthogonalEdgeStyle;rounded=0;orthogonalLoop=1;jettySize=auto;html=1;exitX=0.5;exitY=1;exitDx=0;exitDy=0;entryX=0;entryY=0.5;entryDx=0;entryDy=0;" edge="1" parent="1" source="_3owXhIFQMovRmH-AZ9w-7" target="_3owXhIFQMovRmH-AZ9w-21">
          <mxGeometry relative="1" as="geometry" />
        </mxCell>
        <mxCell id="_3owXhIFQMovRmH-AZ9w-30" style="edgeStyle=orthogonalEdgeStyle;rounded=0;orthogonalLoop=1;jettySize=auto;html=1;exitX=0.5;exitY=1;exitDx=0;exitDy=0;entryX=0.25;entryY=0;entryDx=0;entryDy=0;" edge="1" parent="1" source="_3owXhIFQMovRmH-AZ9w-7" target="_3owXhIFQMovRmH-AZ9w-27">
          <mxGeometry relative="1" as="geometry">
            <Array as="points">
              <mxPoint x="140" y="610" />
              <mxPoint x="140" y="900" />
              <mxPoint x="300" y="900" />
            </Array>
          </mxGeometry>
        </mxCell>
        <mxCell id="_3owXhIFQMovRmH-AZ9w-7" value="addMovesPawn" style="whiteSpace=wrap;html=1;rounded=1;" vertex="1" parent="1">
          <mxGeometry x="90" y="550" width="120" height="60" as="geometry" />
        </mxCell>
        <mxCell id="_3owXhIFQMovRmH-AZ9w-19" style="edgeStyle=orthogonalEdgeStyle;rounded=0;orthogonalLoop=1;jettySize=auto;html=1;" edge="1" parent="1" source="_3owXhIFQMovRmH-AZ9w-8" target="_3owXhIFQMovRmH-AZ9w-17">
          <mxGeometry relative="1" as="geometry" />
        </mxCell>
        <mxCell id="_3owXhIFQMovRmH-AZ9w-8" value="addMovesRook" style="whiteSpace=wrap;html=1;rounded=1;" vertex="1" parent="1">
          <mxGeometry x="230" y="550" width="120" height="60" as="geometry" />
        </mxCell>
        <mxCell id="_3owXhIFQMovRmH-AZ9w-35" style="edgeStyle=orthogonalEdgeStyle;rounded=0;orthogonalLoop=1;jettySize=auto;html=1;exitX=0.5;exitY=1;exitDx=0;exitDy=0;entryX=0.5;entryY=0;entryDx=0;entryDy=0;" edge="1" parent="1" source="_3owXhIFQMovRmH-AZ9w-9" target="_3owXhIFQMovRmH-AZ9w-22">
          <mxGeometry relative="1" as="geometry">
            <Array as="points">
              <mxPoint x="690" y="735" />
              <mxPoint x="750" y="735" />
              <mxPoint x="750" y="860" />
            </Array>
          </mxGeometry>
        </mxCell>
        <mxCell id="_3owXhIFQMovRmH-AZ9w-9" value="addMovesKnight" style="whiteSpace=wrap;html=1;rounded=1;" vertex="1" parent="1">
          <mxGeometry x="630" y="550" width="120" height="60" as="geometry" />
        </mxCell>
        <mxCell id="_3owXhIFQMovRmH-AZ9w-13" style="edgeStyle=orthogonalEdgeStyle;rounded=0;orthogonalLoop=1;jettySize=auto;html=1;entryX=0.592;entryY=0.967;entryDx=0;entryDy=0;entryPerimeter=0;" edge="1" parent="1" source="_3owXhIFQMovRmH-AZ9w-10" target="_3owXhIFQMovRmH-AZ9w-11">
          <mxGeometry relative="1" as="geometry">
            <Array as="points">
              <mxPoint x="560" y="630" />
              <mxPoint x="440" y="630" />
              <mxPoint x="440" y="610" />
              <mxPoint x="441" y="610" />
            </Array>
          </mxGeometry>
        </mxCell>
        <mxCell id="_3owXhIFQMovRmH-AZ9w-14" style="edgeStyle=orthogonalEdgeStyle;rounded=0;orthogonalLoop=1;jettySize=auto;html=1;" edge="1" parent="1">
          <mxGeometry relative="1" as="geometry">
            <mxPoint x="560" y="610" as="sourcePoint" />
            <mxPoint x="300" y="610" as="targetPoint" />
            <Array as="points">
              <mxPoint x="530" y="640" />
              <mxPoint x="300" y="640" />
              <mxPoint x="300" y="610" />
            </Array>
          </mxGeometry>
        </mxCell>
        <mxCell id="_3owXhIFQMovRmH-AZ9w-10" value="addMovesQueen" style="whiteSpace=wrap;html=1;rounded=1;" vertex="1" parent="1">
          <mxGeometry x="500" y="550" width="120" height="60" as="geometry" />
        </mxCell>
        <mxCell id="_3owXhIFQMovRmH-AZ9w-18" value="" style="edgeStyle=orthogonalEdgeStyle;rounded=0;orthogonalLoop=1;jettySize=auto;html=1;" edge="1" parent="1" source="_3owXhIFQMovRmH-AZ9w-11" target="_3owXhIFQMovRmH-AZ9w-17">
          <mxGeometry relative="1" as="geometry" />
        </mxCell>
        <mxCell id="_3owXhIFQMovRmH-AZ9w-11" value="addMovesBishop" style="whiteSpace=wrap;html=1;rounded=1;" vertex="1" parent="1">
          <mxGeometry x="370" y="550" width="120" height="60" as="geometry" />
        </mxCell>
        <mxCell id="_3owXhIFQMovRmH-AZ9w-36" style="edgeStyle=orthogonalEdgeStyle;rounded=0;orthogonalLoop=1;jettySize=auto;html=1;exitX=0.5;exitY=1;exitDx=0;exitDy=0;" edge="1" parent="1" source="_3owXhIFQMovRmH-AZ9w-12" target="_3owXhIFQMovRmH-AZ9w-22">
          <mxGeometry relative="1" as="geometry">
            <Array as="points">
              <mxPoint x="820" y="735" />
              <mxPoint x="760" y="735" />
            </Array>
          </mxGeometry>
        </mxCell>
        <mxCell id="_3owXhIFQMovRmH-AZ9w-12" value="addMovesKing" style="whiteSpace=wrap;html=1;rounded=1;" vertex="1" parent="1">
          <mxGeometry x="760" y="550" width="120" height="60" as="geometry" />
        </mxCell>
        <mxCell id="_3owXhIFQMovRmH-AZ9w-26" style="edgeStyle=orthogonalEdgeStyle;rounded=0;orthogonalLoop=1;jettySize=auto;html=1;entryX=0;entryY=0.25;entryDx=0;entryDy=0;" edge="1" parent="1" source="_3owXhIFQMovRmH-AZ9w-17" target="_3owXhIFQMovRmH-AZ9w-21">
          <mxGeometry relative="1" as="geometry" />
        </mxCell>
        <mxCell id="_3owXhIFQMovRmH-AZ9w-28" style="edgeStyle=orthogonalEdgeStyle;rounded=0;orthogonalLoop=1;jettySize=auto;html=1;entryX=0.5;entryY=0;entryDx=0;entryDy=0;" edge="1" parent="1" source="_3owXhIFQMovRmH-AZ9w-17" target="_3owXhIFQMovRmH-AZ9w-27">
          <mxGeometry relative="1" as="geometry" />
        </mxCell>
        <mxCell id="_3owXhIFQMovRmH-AZ9w-17" value="addInDirectsion" style="whiteSpace=wrap;html=1;rounded=1;" vertex="1" parent="1">
          <mxGeometry x="270" y="740" width="120" height="60" as="geometry" />
        </mxCell>
        <mxCell id="_3owXhIFQMovRmH-AZ9w-21" value="isWithinBoard" style="whiteSpace=wrap;html=1;rounded=1;" vertex="1" parent="1">
          <mxGeometry x="480" y="860" width="120" height="60" as="geometry" />
        </mxCell>
        <mxCell id="_3owXhIFQMovRmH-AZ9w-23" style="edgeStyle=orthogonalEdgeStyle;rounded=0;orthogonalLoop=1;jettySize=auto;html=1;entryX=1;entryY=0.5;entryDx=0;entryDy=0;" edge="1" parent="1" source="_3owXhIFQMovRmH-AZ9w-22" target="_3owXhIFQMovRmH-AZ9w-21">
          <mxGeometry relative="1" as="geometry" />
        </mxCell>
        <mxCell id="_3owXhIFQMovRmH-AZ9w-22" value="isMoveAllowed" style="whiteSpace=wrap;html=1;rounded=1;" vertex="1" parent="1">
          <mxGeometry x="690" y="860" width="120" height="60" as="geometry" />
        </mxCell>
        <mxCell id="_3owXhIFQMovRmH-AZ9w-27" value="isEnemy" style="whiteSpace=wrap;html=1;rounded=1;" vertex="1" parent="1">
          <mxGeometry x="270" y="930" width="120" height="60" as="geometry" />
        </mxCell>
      </root>
    </mxGraphModel>
  </diagram>
</mxfile>
